# xmcd
#
# Track frame offsets:
# 150
# 14412
# 33550
# 46685
# 63858
# 92476
# 127871
# 176481
# 233188
# 249283
# 274769
# 308734
# 335916
#
# Disc length: 4649 seconds
#
# Revision: 0
# Processed by: cddbd v1.5.1PL0 Copyright (c) Steve Scherf et al.
# Submitted via: Audion 3.0.2 (http://www.panic.com/audion/)
#
DISCID=a412270d
DTITLE=dtjukteuukmd - rsg
DYEAR=1900
DGENRE=
TTITLE0=ag
TTITLE1=arg
TTITLE2=aerha 
TTITLE3=ae vjrs b
TTITLE4=jq 46q
TTITLE5=qq4
TTITLE6=64q6j
TTITLE7=hjq4hq
TTITLE8=hhzcmkutzfj
TTITLE9=hu
TTITLE10=j
TTITLE11=re
TTITLE12=fdjrz
EXTD=
EXTT0=
EXTT1=
EXTT2=
EXTT3=
EXTT4=
EXTT5=
EXTT6=
EXTT7=
EXTT8=
EXTT9=
EXTT10=
EXTT11=
EXTT12=
PLAYORDER=
